<svg t="1640682127679" class="icon" viewBox="0 0 1137 1024" version="1.1"
  xmlns="http://www.w3.org/2000/svg" p-id="36576" width="32" height="32">
  <path d="M544.423417 178.622134h44.614265v693.689364h-44.614265z" fill="#6E6E96" p-id="36577"></path>
  <path d="M566.73055 121.475721m-76.861456 0a76.861456 76.861456 0 1 0 153.722912 0 76.861456 76.861456 0 1 0-153.722912 0Z" fill="#D19797" p-id="36578"></path>
  <path d="M566.73055 66.921398c30.083399 0 54.554324 24.475386 54.554323 54.558785 0 30.078938-24.470924 54.554324-54.554323 54.554323s-54.554324-24.470924-54.554324-54.554323c0-30.083399 24.470924-54.558785 54.554324-54.558785z m-99.168589 54.554323c0 54.679243 44.489345 99.168589 99.168589 99.168589s99.168589-44.484884 99.168589-99.168589C665.899139 66.792016 621.409793 22.307133 566.73055 22.307133s-99.168589 44.484884-99.168589 99.168588z" fill="#6E6E96" p-id="36579"></path>
  <path d="M643.592006 143.782854h315.31132a22.307133 22.307133 0 1 0 0-44.614265h-315.31132a22.307133 22.307133 0 1 0 0 44.614265zM150.912214 143.782854h338.961341a22.307133 22.307133 0 0 0 0-44.614265H150.912214a22.307133 22.307133 0 0 0 0 44.614265z" fill="#6E6E96" p-id="36580"></path>
  <path d="M105.231667 565.508119L236.93744 135.895052a22.307133 22.307133 0 0 1-42.164942 1.423195l165.536769 433.552507a22.307133 22.307133 0 0 0 41.678647-15.909447L236.451144 121.395416a22.302671 22.302671 0 0 0-42.164942 1.423195l-131.705772 429.608605a22.307133 22.307133 0 1 0 42.651237 13.080903zM787.316861 565.508119l131.710234-429.613067a22.307133 22.307133 0 0 1-42.164942 1.418734l165.53677 433.552506a22.307133 22.307133 0 1 0 41.678647-15.909447l-165.53677-433.561429a22.307133 22.307133 0 0 0-42.164942 1.418733l-131.710234 429.613067a22.307133 22.307133 0 1 0 42.651237 13.080903z" fill="#6E6E96" p-id="36581"></path>
  <path d="M230.446064 726.480849c138.161457 0 180.375474-171.452621 180.375475-171.452621H44.614265s26.862249 171.452621 185.831799 171.452621z m496.262318-171.452621s22.909425 171.452621 190.288764 171.452621c138.156995 0 175.914048-171.452621 175.914048-171.452621h-366.202812z" fill="#F0F0FF" p-id="36582"></path>
  <path d="M44.614265 577.335361h366.207274a22.302671 22.302671 0 0 1-21.660226-27.638538c-0.37476 1.512424-39.920845 154.476893-158.715249 154.476894-137.590394 0-162.792992-146.410634-163.801275-152.647709a22.253596 22.253596 0 0 1-5.041412 17.988472A22.29821 22.29821 0 0 1 44.614265 577.335361z m185.831799 171.452621c153.874601 0 200.139594-180.732388 202.0357-188.423888a22.316055 22.316055 0 0 0-21.660225-27.638537H44.614265a22.307133 22.307133 0 0 0-22.039447 25.760277c10.314818 65.814964 67.028472 190.302148 207.871246 190.302148zM726.708382 577.335361h366.202812a22.311594 22.311594 0 0 1-21.780684-27.103166c-1.396427 6.250459-35.785102 153.941522-154.128902 153.941522-146.17864 0-167.35257-145.888647-168.177935-152.098953a22.324978 22.324978 0 0 1-5.322481 17.644942 22.338363 22.338363 0 0 1-16.79281 7.615655z m190.288764 171.452621c123.465518 0 183.306632-123.603822 197.699194-188.959259a22.311594 22.311594 0 0 0-21.780684-27.103166h-366.202812a22.316055 22.316055 0 0 0-22.11083 25.260597c8.811317 65.98896 64.55238 190.801828 212.395132 190.801828z" fill="#6E6E96" p-id="36583"></path>
  <path d="M1069.533319 532.721095c-23.087882 50.307045-70.236238 117.915503-156.997599 117.915504-105.120132 0-153.236617-67.603996-174.504237-117.915504h-15.784527s22.909425 171.452621 190.288764 171.452622c138.156995 0 175.914048-171.452621 175.914048-171.452622h-18.916449z m-843.548681 117.915504c-99.833341 0-147.548298-67.603996-169.244215-117.915504H40.152839s26.862249 171.452621 185.831799 171.452622c138.161457 0 180.375474-171.452621 180.375474-171.452622h-20.308413c-24.390619 50.307045-73.301238 117.915503-160.067061 117.915504z" fill="#6E6E96" opacity=".16" p-id="36584"></path>
  <path d="M383.776371 983.847161v-93.689957c0-24.537846 20.076419-44.614265 44.614265-44.614265h298.915577c24.537846 0 44.614265 20.076419 44.614266 44.614265v93.689957" fill="#D19797" p-id="36585"></path>
  <path d="M651.29689 844.374045h102.61281v136.073509h-102.61281z" fill="#6E6E96" opacity=".25" p-id="36586"></path>
  <path d="M462.801619 857.758325h93.689957v122.689229h-93.689957z" fill="#FFFFFF" opacity=".32" p-id="36587"></path>
  <path d="M406.083504 983.847161v-93.689957c0-12.300153 10.00698-22.307133 22.307132-22.307132h298.915577c12.300153 0 22.307133 10.00698 22.307133 22.307132v93.689957h44.614265v-93.689957c0-36.900459-30.020939-66.921398-66.921398-66.921398h-298.915577c-36.900459 0-66.921398 30.020939-66.921398 66.921398v93.689957h44.614266z" fill="#6E6E96" p-id="36588"></path>
  <path d="M312.393547 957.078602h530.909756v44.614265h-530.909756z" fill="#6E6E96" p-id="36589"></path>
</svg>