<svg t="1640682967046" class="icon" viewBox="0 0 1108 1024" version="1.1"
  xmlns="http://www.w3.org/2000/svg" p-id="31509" width="32" height="32">
  <path d="M174.743963 897.505607V212.295306c0-41.984 34.156712-76.136037 76.136037-76.136037h604.735123c41.984 0 76.136037 34.156712 76.136037 76.136037v685.219653h108.763762V212.295306c0-101.955799-82.939324-184.899799-184.899799-184.899799H250.88c-101.955799 0-184.904475 82.944-184.904475 184.899799v685.219653h108.768438v-0.009352z" fill="#FFE599" p-id="31510"></path>
  <path d="M863.026265 24.426374H258.295817c-101.955799 0-184.899799 82.944-184.899799 184.8998v50.423817c0-101.955799 82.944-184.899799 184.899799-184.899799h604.735124c101.960475 0 184.909151 82.944 184.90915 184.899799V209.326174c-0.014027-101.955799-82.953352-184.899799-184.913826-184.8998z" fill="#FFF1C7" p-id="31511"></path>
  <path d="M174.743963 301.088731h757.007197v35.592182H174.743963z" fill="#6E6E96" p-id="31512"></path>
  <path d="M392.276164 321.933443c0 23.93074-19.577571 43.508311-43.503634 43.50831H331.373881c-23.93074 0-43.508311-19.582247-43.50831-43.50831v-43.503635c0-23.926064 19.577571-43.503635 43.50831-43.503634h17.398649c23.926064 0 43.503635 19.577571 43.503634 43.503634v43.503635z" fill="#FFE599" p-id="31513"></path>
  <path d="M174.743963 501.208256h757.007197v35.596858H174.743963zM174.743963 710.038795h757.007197v35.592182H174.743963z" fill="#6E6E96" p-id="31514"></path>
  <path d="M827.326539 526.406137c0 23.93074-19.577571 43.512986-43.503635 43.512986h-17.403324c-23.926064 0-43.508311-19.582247-43.508311-43.512986v-43.503635c0-23.93074 19.582247-43.503635 43.508311-43.503634h17.403324c23.926064 0 43.503635 19.577571 43.503635 43.503634v43.503635z" fill="#FF9191" p-id="31515"></path>
  <path d="M827.326539 526.406137c0 23.93074-19.577571 43.512986-43.503635 43.512986h-17.403324c-23.926064 0-43.508311-19.582247-43.508311-43.512986v-43.503635c0-23.93074 19.582247-43.503635 43.508311-43.503634h17.403324c23.926064 0 43.503635 19.577571 43.503635 43.503634v43.503635z" fill="#FF9191" p-id="31516"></path>
  <path d="M374.87284 730.883507c0 23.926064-19.577571 43.517662-43.503635 43.517662h-17.408c-23.926064 0-43.503635-19.582247-43.503634-43.517662v-43.508311c0-23.926064 19.577571-43.503635 43.503634-43.503634h17.408c23.926064 0 43.503635 19.577571 43.503635 43.503634v43.508311z" fill="#5ED4B8" p-id="31517"></path>
  <path d="M374.87284 730.883507c0 23.926064-19.577571 43.517662-43.503635 43.517662h-17.408c-23.926064 0-43.503635-19.582247-43.503634-43.517662v-43.508311c0-23.926064 19.577571-43.503635 43.503634-43.503634h17.408c23.926064 0 43.503635 19.577571 43.503635 43.503634v43.508311zM544.538886 730.883507c0 23.926064-19.577571 43.517662-43.503635 43.517662h-17.398648c-23.93074 0-43.508311-19.582247-43.508311-43.517662v-43.508311c0-23.926064 19.577571-43.503635 43.508311-43.503634h17.398648c23.926064 0 43.503635 19.577571 43.503635 43.503634v43.508311z" fill="#5ED4B8" p-id="31518"></path>
  <path d="M544.538886 730.883507c0 23.926064-19.577571 43.517662-43.503635 43.517662h-17.398648c-23.93074 0-43.508311-19.582247-43.508311-43.517662v-43.508311c0-23.926064 19.577571-43.503635 43.508311-43.503634h17.398648c23.926064 0 43.503635 19.577571 43.503635 43.503634v43.508311z" fill="#5ED4B8" p-id="31519"></path>
  <path d="M557.598393 321.933443c0 23.93074-19.582247 43.508311-43.512987 43.50831h-17.403324c-23.926064 0-43.508311-19.582247-43.50831-43.50831v-43.503635c0-23.926064 19.577571-43.503635 43.50831-43.503634h17.403324c23.926064 0 43.512986 19.577571 43.512987 43.503634v43.503635zM822.982721 321.933443c0 23.93074-19.577571 43.508311-43.503634 43.50831h-17.408c-23.926064 0-43.517662-19.582247-43.517662-43.50831v-43.503635c0-23.926064 19.582247-43.503635 43.517662-43.503634h17.408c23.926064 0 43.503635 19.577571 43.503634 43.503634v43.503635z" fill="#FFE599" p-id="31520"></path>
  <path d="M648.958831 522.06232c0 23.916712-19.582247 43.498959-43.50831 43.498959h-17.398649c-23.926064 0-43.522338-19.582247-43.522338-43.498959v-43.508311c0-23.93074 19.582247-43.503635 43.522338-43.503635h17.398649c23.926064 0 43.508311 19.577571 43.50831 43.503635v43.508311zM479.283434 522.06232c0 23.916712-19.577571 43.498959-43.503635 43.498959h-17.403324c-23.926064 0-43.503635-19.582247-43.503635-43.498959v-43.508311c0-23.93074 19.577571-43.503635 43.503635-43.503635h17.403324c23.926064 0 43.503635 19.577571 43.503635 43.503635v43.508311z" fill="#FF9191" p-id="31521"></path>
  <path d="M827.326539 730.883507c0 23.926064-19.577571 43.517662-43.503635 43.517662h-17.403324c-23.926064 0-43.508311-19.582247-43.508311-43.517662v-43.508311c0-23.926064 19.582247-43.503635 43.508311-43.503634h17.403324c23.926064 0 43.503635 19.577571 43.503635 43.503634v43.508311z" fill="#5ED4B8" p-id="31522"></path>
  <path d="M827.326539 730.883507c0 23.926064-19.577571 43.517662-43.503635 43.517662h-17.403324c-23.926064 0-43.508311-19.582247-43.508311-43.517662v-43.508311c0-23.926064 19.582247-43.503635 43.508311-43.503634h17.403324c23.926064 0 43.503635 19.577571 43.503635 43.503634v43.508311z" fill="#5ED4B8" p-id="31523"></path>
  <path d="M22.47189 962.765735c0 23.926064 19.577571 43.512986 43.503635 43.512986h978.887891c23.926064 0 43.512986-19.582247 43.512986-43.512986v-21.747141c0-23.93074-19.582247-43.512986-43.512986-43.512987H65.975525c-23.926064 0-43.503635 19.582247-43.503635 43.512987v21.747141z" fill="#FFE599" p-id="31524"></path>
  <path d="M958.061881 101.212347s38.776402 31.477479 38.776402 117.493479v678.809133h25.871196V197.77695c0.014027 0-11.133078-74.957735-64.647598-96.564603z" fill="#FFCC80" p-id="31525"></path>
  <path d="M148.138667 108.567379s-41.133005 27.830356-41.133005 141.283945v647.663635h-23.234046V212.295306s4.170813-74.864219 64.367051-103.727927z" fill="#FFF1C7" p-id="31526"></path>
  <path d="M1044.863416 950.169132H65.975525c-20.42389 0-37.630831-14.289242-42.245845-33.347799a43.204384 43.204384 0 0 0-1.25779 10.169863v21.747142c0 23.926064 19.577571 43.512986 43.503635 43.512986h978.887891c23.926064 0 43.512986-19.582247 43.512986-43.512986v-21.747142c0-3.502174-0.46758-6.901479-1.25779-10.169863-4.615014 19.058557-21.831306 33.347799-42.255196 33.347799zM853.333333 101.69863H218.593607C134.111269 101.69863 126.246575 175.342466 126.246575 175.342466v712.820895h29.794192V202.943708c0-41.984 34.156712-76.136037 76.136037-76.136037h604.735123c39.243982 0 71.62389 29.850301 75.691836 68.032877l0.004675-0.004676C912.613114 111.457023 853.333333 101.69863 853.333333 101.69863z" fill="#FFCC80" p-id="31527"></path>
  <path d="M479.283434 522.06232v-24.828494c0 23.916712-19.577571 43.503635-43.503635 43.503635h-17.403324c-23.926064 0-43.503635-19.582247-43.503635-43.503635v24.828494c0 23.916712 19.577571 43.498959 43.503635 43.498959h17.403324c23.926064 0 43.503635-19.577571 43.503635-43.498959z m-147.914229 227.510356h-17.408c-23.926064 0-43.503635-19.582247-43.503634-43.508311v24.823818c0 23.926064 19.577571 43.517662 43.503634 43.517662h17.408c23.926064 0 43.503635-19.582247 43.503635-43.517662v-24.823818c0 23.926064-19.577571 43.508311-43.503635 43.508311z m0.004676-384.130923h17.398649c23.926064 0 43.503635-19.582247 43.503634-43.50831v-24.819142c0 23.93074-19.577571 43.508311-43.503634 43.508311H331.373881c-23.93074 0-43.508311-19.577571-43.50831-43.508311v24.819142c0 23.93074 19.577571 43.508311 43.50831 43.50831z m165.312877 0h17.398648c23.935416 0 43.517662-19.582247 43.517662-43.50831v-24.819142c0 23.93074-19.582247 43.508311-43.517662 43.508311h-17.398648c-23.93074 0-43.512986-19.577571-43.512986-43.508311v24.819142c0 23.93074 19.582247 43.508311 43.512986 43.50831z m4.343817 384.130923h-17.393972c-23.93074 0-43.508311-19.582247-43.508311-43.508311v24.823818c0 23.926064 19.577571 43.517662 43.508311 43.517662h17.393972c23.926064 0 43.508311-19.582247 43.508311-43.517662v-24.823818c0 23.926064-19.582247 43.508311-43.508311 43.508311z m282.792329 0h-17.403324c-23.926064 0-43.508311-19.582247-43.508311-43.508311v24.823818c0 23.926064 19.582247 43.517662 43.508311 43.517662h17.403324c23.926064 0 43.503635-19.582247 43.503635-43.517662v-24.823818c0 23.926064-19.577571 43.508311-43.503635 43.508311z m-178.372383-208.835215h-17.398649c-23.926064 0-43.522338-19.582247-43.522338-43.503635v24.828494c0 23.916712 19.582247 43.498959 43.522338 43.498959h17.398649c23.926064 0 43.508311-19.582247 43.50831-43.498959v-24.828494c0 23.926064-19.577571 43.503635-43.50831 43.503635z m178.372383 4.357845h-17.403324c-23.926064 0-43.508311-19.582247-43.508311-43.508311v24.819142c0 23.93074 19.582247 43.512986 43.508311 43.512986h17.403324c23.926064 0 43.503635-19.582247 43.503635-43.512986v-24.819142c0 23.93074-19.577571 43.508311-43.503635 43.508311z m-21.751817-179.653553h17.408c23.926064 0 43.503635-19.582247 43.503634-43.50831v-24.819142c0 23.93074-19.577571 43.508311-43.503634 43.508311h-17.408c-23.926064 0-43.517662-19.577571-43.517662-43.508311v24.819142c0.014027 23.93074 19.591598 43.508311 43.517662 43.50831z" opacity=".1" p-id="31528"></path>
  <path d="M479.283434 504.27558v-25.716895c0-23.926064-19.577571-43.508311-43.503635-43.508311h-17.403324c-23.926064 0-43.503635 19.572895-43.503635 43.508311v25.716895c0-23.935416 19.577571-43.503635 43.503635-43.503635h17.403324c23.926064-0.004676 43.503635 19.577571 43.503635 43.503635zM331.373881 260.643068h17.398649c23.926064 0 43.503635 19.577571 43.503634 43.503635v-25.716895c0-23.926064-19.577571-43.503635-43.503634-43.503634H331.373881c-23.93074 0-43.508311 19.577571-43.50831 43.503634v25.716895c0-23.926064 19.577571-43.503635 43.50831-43.503635z m165.312877 0h17.393973c23.926064 0 43.517662 19.577571 43.517662 43.503635v-25.716895c0-23.926064-19.586922-43.503635-43.517662-43.503634h-17.393973c-23.935416 0-43.512986 19.577571-43.512986 43.503634v25.716895c0-23.926064 19.572895-43.503635 43.512986-43.503635z m265.384329 0h17.408c23.926064 0 43.508311 19.577571 43.50831 43.503635v-25.716895c0-23.926064-19.582247-43.503635-43.50831-43.503634h-17.408c-23.926064 0-43.517662 19.577571-43.517662 43.503634v25.716895c0.014027-23.926064 19.591598-43.503635 43.517662-43.503635z m-430.701882 383.228494h-17.408c-23.926064 0-43.503635 19.582247-43.503634 43.50831v25.716895c0-23.926064 19.577571-43.508311 43.503634-43.50831h17.408c23.926064 0 43.503635 19.582247 43.503635 43.50831v-25.716895c0-23.926064-19.577571-43.508311-43.503635-43.50831z m452.458375 0h-17.408c-23.926064 0-43.508311 19.582247-43.508311 43.50831v25.716895c0-23.926064 19.582247-43.508311 43.508311-43.50831h17.408c23.926064 0 43.498959 19.582247 43.498959 43.50831v-25.716895c0-23.926064-19.572895-43.508311-43.498959-43.50831z m0-204.472694h-17.408c-23.926064 0-43.508311 19.572895-43.508311 43.50831v25.716895c0-23.93074 19.582247-43.498959 43.508311-43.498959h17.408c23.926064 0 43.498959 19.582247 43.498959 43.498959v-25.716895c0-23.926064-19.572895-43.508311-43.498959-43.50831z m-282.797005 204.472694h-17.398648c-23.926064 0-43.508311 19.582247-43.508311 43.50831v25.716895c0-23.926064 19.582247-43.508311 43.508311-43.50831h17.398648c23.926064 0 43.503635 19.582247 43.503635 43.50831v-25.716895c0-23.926064-19.577571-43.508311-43.503635-43.50831z m104.419946-208.821188h-17.398649c-23.926064 0-43.517662 19.572895-43.517662 43.508311v25.716895c0-23.935416 19.582247-43.503635 43.517662-43.503635h17.398649c23.926064 0 43.508311 19.582247 43.50831 43.503635v-25.716895c0-23.926064-19.577571-43.508311-43.50831-43.508311z" fill="#FFFFFF" opacity=".15" p-id="31529"></path>
  <path d="M47.272329 911.542356V207.619507C47.272329 95.353571 138.609388 4.016511 250.88 4.016511h604.735123c112.265936 0 203.602995 91.337059 203.602996 203.602996v703.922849h-146.170156V207.619507c0-31.669187-25.763653-57.43284-57.43284-57.43284H250.88c-31.664511 0-57.43284 25.763653-57.43284 57.43284v703.913498l-146.174831 0.009351z m903.182027-37.406393h71.35737V207.619507c0-91.640986-74.555616-166.196603-166.196603-166.196603H250.88c-91.645662 0-166.201279 74.555616-166.201279 166.196603v666.516456h71.362046V207.619507c0-52.294137 42.545096-94.839233 94.839233-94.839233h604.735123c52.298813 0 94.839233 42.545096 94.839233 94.839233v666.516456z" fill="#6E6E96" p-id="31530"></path>
  <path d="M1044.863416 1020.306119H65.975525c-34.296986 0-62.206831-27.909845-62.206831-62.216183v-21.747141c0-34.306338 27.905169-62.216183 62.206831-62.216183h978.887891c34.306338 0 62.216183 27.909845 62.216182 62.216183v21.747141c0 34.306338-27.909845 62.216183-62.216182 62.216183zM65.975525 911.533005a24.833169 24.833169 0 0 0-24.800438 24.80979v21.747141a24.828493 24.828493 0 0 0 24.800438 24.80979h978.887891a24.837845 24.837845 0 0 0 24.809789-24.80979v-21.747141a24.837845 24.837845 0 0 0-24.809789-24.80979H65.975525zM348.77253 398.172347H331.373881c-34.301662 0-62.211507-27.909845-62.211507-62.211507v-43.503635c0-34.296986 27.909845-62.206831 62.211507-62.206831h17.398649c34.301662 0 62.206831 27.905169 62.206831 62.206831v43.503635c0 34.306338-27.905169 62.211507-62.206831 62.211507zM331.373881 267.656767a24.828493 24.828493 0 0 0-24.805114 24.800438v43.503635a24.833169 24.833169 0 0 0 24.805114 24.805114h17.398649a24.828493 24.828493 0 0 0 24.800438-24.805114v-43.503635a24.828493 24.828493 0 0 0-24.800438-24.800438H331.373881zM783.822904 602.649717h-17.403324c-34.301662 0-62.211507-27.909845-62.211507-62.216183v-43.503634c0-34.296986 27.909845-62.206831 62.211507-62.206832h17.403324c34.301662 0 62.206831 27.905169 62.206831 62.206832v43.503634c0 34.306338-27.905169 62.216183-62.206831 62.216183z m-17.403324-130.520256a24.828493 24.828493 0 0 0-24.805114 24.800439v43.503634a24.833169 24.833169 0 0 0 24.805114 24.80979h17.403324a24.828493 24.828493 0 0 0 24.800438-24.80979v-43.503634a24.828493 24.828493 0 0 0-24.800438-24.800439h-17.403324zM331.369205 807.131763h-17.408c-34.301662 0-62.206831-27.914521-62.206831-62.220859v-43.50831c0-34.301662 27.905169-62.206831 62.206831-62.206831h17.408c34.301662 0 62.206831 27.905169 62.206832 62.206831v43.50831c0 34.306338-27.905169 62.220858-62.206832 62.220859z m-17.408-130.524932a24.828493 24.828493 0 0 0-24.800438 24.800438v43.508311a24.833169 24.833169 0 0 0 24.800438 24.814466h17.408a24.837845 24.837845 0 0 0 24.800439-24.814466v-43.508311a24.828493 24.828493 0 0 0-24.800439-24.800438h-17.408zM501.035251 807.131763h-17.398648c-34.301662 0-62.211507-27.914521-62.211507-62.220859v-43.50831c0-34.301662 27.909845-62.206831 62.211507-62.206831h17.398648c34.301662 0 62.206831 27.905169 62.206831 62.206831v43.50831c0 34.306338-27.905169 62.220858-62.206831 62.220859z m-17.398648-130.524932a24.828493 24.828493 0 0 0-24.805114 24.800438v43.508311a24.837845 24.837845 0 0 0 24.805114 24.814466h17.398648a24.833169 24.833169 0 0 0 24.800438-24.814466v-43.508311a24.828493 24.828493 0 0 0-24.800438-24.800438h-17.398648zM514.085406 398.172347h-17.403324c-34.301662 0-62.211507-27.909845-62.211507-62.211507v-43.503635c0-34.296986 27.909845-62.206831 62.211507-62.206831h17.403324c34.306338 0 62.216183 27.905169 62.216183 62.206831v43.503635c0 34.306338-27.909845 62.211507-62.216183 62.211507z m-17.403324-130.51558a24.828493 24.828493 0 0 0-24.805114 24.800438v43.503635a24.833169 24.833169 0 0 0 24.805114 24.805114h17.403324a24.833169 24.833169 0 0 0 24.80979-24.805114v-43.503635a24.833169 24.833169 0 0 0-24.80979-24.800438h-17.403324zM779.479087 398.172347h-17.408c-34.306338 0-62.220858-27.909845-62.220859-62.211507v-43.503635c0-34.296986 27.914521-62.206831 62.220859-62.206831h17.408c34.301662 0 62.206831 27.905169 62.206831 62.206831v43.503635c0 34.306338-27.905169 62.211507-62.206831 62.211507z m-17.408-130.51558a24.833169 24.833169 0 0 0-24.814466 24.800438v43.503635a24.837845 24.837845 0 0 0 24.814466 24.805114h17.408a24.828493 24.828493 0 0 0 24.800438-24.805114v-43.503635a24.828493 24.828493 0 0 0-24.800438-24.800438h-17.408zM605.450521 598.291872h-17.398649c-34.311014 0-62.225534-27.905169-62.225534-62.202155v-43.508311c0-34.301662 27.914521-62.206831 62.225534-62.206831h17.398649c34.301662 0 62.211507 27.905169 62.211506 62.206831v43.508311c0 34.296986-27.909845 62.202155-62.211506 62.202155z m-17.393973-130.510904a24.837845 24.837845 0 0 0-24.819142 24.800438v43.508311a24.833169 24.833169 0 0 0 24.819142 24.795762h17.398648a24.828493 24.828493 0 0 0 24.805115-24.795762v-43.508311a24.828493 24.828493 0 0 0-24.805115-24.800438h-17.398648zM435.779799 598.291872h-17.403324c-34.301662 0-62.206831-27.905169-62.206831-62.202155v-43.508311c0-34.301662 27.905169-62.206831 62.206831-62.206831h17.403324c34.296986 0 62.206831 27.905169 62.206831 62.206831v43.508311c0 34.296986-27.905169 62.202155-62.206831 62.202155z m-17.403324-130.510904a24.828493 24.828493 0 0 0-24.800438 24.800438v43.508311a24.828493 24.828493 0 0 0 24.800438 24.795762h17.403324a24.828493 24.828493 0 0 0 24.800438-24.795762v-43.508311a24.828493 24.828493 0 0 0-24.800438-24.800438h-17.403324zM783.822904 807.131763h-17.403324c-34.301662 0-62.211507-27.914521-62.211507-62.220859v-43.50831c0-34.301662 27.909845-62.206831 62.211507-62.206831h17.403324c34.301662 0 62.206831 27.905169 62.206831 62.206831v43.50831c0 34.306338-27.905169 62.220858-62.206831 62.220859z m-17.403324-130.524932a24.828493 24.828493 0 0 0-24.805114 24.800438v43.508311a24.837845 24.837845 0 0 0 24.805114 24.814466h17.403324a24.833169 24.833169 0 0 0 24.800438-24.814466v-43.508311a24.828493 24.828493 0 0 0-24.800438-24.800438h-17.403324z" fill="#6E6E96" p-id="31531"></path>
</svg>