<svg t="1640680599811" class="icon" viewBox="0 0 1024 1024" version="1.1"
  xmlns="http://www.w3.org/2000/svg" p-id="22384" width="32" height="32">
  <path d="M409.088 586.24h-151.04c-16.384 0-29.44-13.056-29.44-29.44s13.056-29.44 29.44-29.44h151.04c16.384 0 29.44 13.056 29.44 29.44s-13.312 29.44-29.44 29.44zM257.792 716.8c-16.128 0-29.44-13.056-29.44-29.184 0-16.384 13.056-29.44 29.184-29.696l211.2-1.28c16.384 0 29.44 13.056 29.696 29.184 0 16.384-13.056 29.44-29.184 29.696l-211.456 1.28c0.256 0 0 0 0 0zM409.088 857.6h-151.04c-16.384 0-29.44-13.056-29.44-29.44s13.056-29.44 29.44-29.44h151.04c16.384 0 29.44 13.056 29.44 29.44s-13.312 29.44-29.44 29.44z" fill="#007C56" p-id="22385"></path>
  <path d="M688.384 1024H344.576c-68.096 0-123.648-55.552-123.648-123.648V473.088c0-68.096 55.552-123.648 123.648-123.648H688.64c68.096 0 123.648 55.552 123.648 123.648v427.264c0 68.096-55.552 123.648-123.904 123.648zM344.576 408.32c-35.84 0-64.768 29.184-64.768 64.768v427.264c0 35.84 29.184 64.768 64.768 64.768H688.64c35.84 0 64.768-29.184 64.768-64.768V473.088c0-35.84-29.184-64.768-64.768-64.768H344.576z" fill="#2A2A2A" p-id="22386"></path>
  <path d="M733.696 408.32H290.304c-43.264 0-78.336-35.072-78.336-78.336v-3.328c0-43.264 35.072-78.336 78.336-78.336h443.648c43.264 0 78.336 35.072 78.336 78.336v3.328c0 43.264-35.328 78.336-78.592 78.336zM290.304 307.2c-10.752 0-19.456 8.704-19.456 19.456v3.328c0 10.752 8.704 19.456 19.456 19.456h443.648c10.752 0 19.456-8.704 19.456-19.456v-3.328c0-10.752-8.704-19.456-19.456-19.456H290.304z" fill="#2A2A2A" p-id="22387"></path>
  <path d="M675.328 305.92h-317.44c-16.384 0-29.44-13.056-29.44-29.44V239.872c0-59.648 37.632-111.104 89.6-128v-7.936c0-57.344 44.288-103.936 98.56-103.936s98.56 46.592 98.56 103.936v7.936c51.968 16.64 89.6 68.352 89.6 128V276.48c0 16.384-13.312 29.44-29.44 29.44z m-288-58.88h258.56v-7.168c0-39.168-27.392-71.936-62.464-74.496-15.36-1.28-27.136-14.08-27.136-29.44V103.936c0-24.832-17.92-45.056-39.68-45.056s-39.68 20.224-39.68 45.056v32c0 15.36-11.776 28.16-27.136 29.44-35.072 2.816-62.464 35.584-62.464 74.496v7.168z" fill="#2A2A2A" p-id="22388"></path>
</svg>