<svg t="1640680404531" class="icon" viewBox="0 0 1479 1024" version="1.1"
  xmlns="http://www.w3.org/2000/svg" p-id="15109" width="32" height="32">
  <path d="M185.551598 443.429153a68.74421 68.74421 0 1 0-68.74421-68.74421 68.74421 68.74421 0 0 0 68.74421 68.74421zM185.551598 646.195687A68.74421 68.74421 0 1 0 254.180271 714.882129a68.686442 68.686442 0 0 0-68.628673-68.686442zM137.372883 480.920743v127.783354a113.918976 113.918976 0 0 1 96.35743 0V480.920743a113.918976 113.918976 0 0 1-96.35743 0zM658.846817 726.0314L480.054104 829.205483l-178.734946-103.174083a116.345242 116.345242 0 0 1-47.774337 83.590648l201.149024 116.11417v98.206014h50.778286v-98.206014l201.149024-116.11417a116.345242 116.345242 0 0 1-47.774338-83.590648zM1411.798103 346.898418l-317.320961-183.240869v-86.652365h-50.720518v86.652365l-269.142247 155.396575-269.142246-155.396575v-86.652365h-50.778286v86.652365L253.429284 279.887255a116.229706 116.229706 0 0 1 47.889874 83.53288L480.054104 260.246053l246.381558 142.225415v206.232629a113.80344 113.80344 0 0 1 96.299662 0v-206.232629l246.381559-142.225415 246.381558 142.225415v284.508599l-246.381558 142.225416-178.734946-103.174083a116.229706 116.229706 0 0 1-47.832105 83.590648l201.206792 116.171938v98.206014h50.720518v-98.206014l317.320961-183.1831z" fill="#F7BD74" p-id="15110"></path>
  <path d="M774.614377 646.195687A68.74421 68.74421 0 1 0 843.416355 714.882129a68.686442 68.686442 0 0 0-68.801978-68.686442zM302.722926 420.524044l165.390482-98.078924 24.534173 41.38517L327.262876 461.914991zM667.396517 659.020238V480.920743h-48.178715v152.392626l-152.565931 102.134255 26.804465 39.975624 173.940181-116.40301zM877.973319 422.58637l165.869957-97.316383 24.349315 41.500707-165.869958 97.316383zM1267.377494 659.020238V480.920743h-48.178715v152.392626l-152.565931 102.134255 26.804465 39.975624 173.940181-116.40301z" fill="#F7BD74" p-id="15111"></path>
  <path d="M630.713683 112.301581m-38.242578 0a38.242577 38.242577 0 1 0 76.485155 0 38.242577 38.242577 0 1 0-76.485155 0Z" fill="#F7BD74" p-id="15112"></path>
  <path d="M719.099095 19.121404a19.121289 19.121289 0 1 1-19.06352-19.121288 19.121289 19.121289 0 0 1 19.06352 19.121288zM172.033829 200.686993a23.916053 23.916053 0 1 1-23.916053-23.916052 23.916053 23.916053 0 0 1 23.916053 23.916052z" fill="#F7BD74" p-id="15113"></path>
  <path d="M1383.318359 269.951117m-16.695022 0a16.695022 16.695022 0 1 0 33.390044 0 16.695022 16.695022 0 1 0-33.390044 0Z" fill="#F7BD74" p-id="15114"></path>
  <path d="M1423.929434 205.481758m-38.242577 0a38.242577 38.242577 0 1 0 76.485154 0 38.242577 38.242577 0 1 0-76.485154 0Z" fill="#F7BD74" p-id="15115"></path>
  <path d="M1404.808146 881.60128a19.121289 19.121289 0 1 1-19.121289-19.121289 19.121289 19.121289 0 0 1 19.121289 19.121289z" fill="#F7BD74" p-id="15116"></path>
  <path d="M862.479876 960.454932m-33.447813 0a33.447813 33.447813 0 1 0 66.895626 0 33.447813 33.447813 0 1 0-66.895626 0Z" fill="#F7BD74" p-id="15117"></path>
  <path d="M800.379014 888.764542a16.752791 16.752791 0 1 1-16.752791-16.752791 16.695022 16.695022 0 0 1 16.752791 16.752791zM363.131179 969.986692a14.326524 14.326524 0 1 1-14.326525-14.326524 14.326524 14.326524 0 0 1 14.326525 14.326524z" fill="#F7BD74" p-id="15118"></path>
  <path d="M57.363866 781.257841m-33.447813 0a33.447813 33.447813 0 1 0 66.895626 0 33.447813 33.447813 0 1 0-66.895626 0Z" fill="#F7BD74" p-id="15119"></path>
  <path d="M78.853652 671.324873a21.547555 21.547555 0 1 1-21.489786-21.489786 21.547555 21.547555 0 0 1 21.489786 21.489786zM23.916053 324.946485a11.958026 11.958026 0 1 1-11.958027-11.958026 11.958026 11.958026 0 0 1 11.958027 11.958026zM924.580737 119.464843a21.489787 21.489787 0 1 1-21.489786-21.258713 21.489787 21.489787 0 0 1 21.489786 21.258713z" fill="#F7BD74" p-id="15120"></path>
  <path d="M1460.958878 494.554048m-17.908155 0a17.908155 17.908155 0 1 0 35.816311 0 17.908155 17.908155 0 1 0-35.816311 0Z" fill="#F7BD74" p-id="15121"></path>
</svg>