<svg t="1640680851182" class="icon" viewBox="0 0 1024 1024" version="1.1"
  xmlns="http://www.w3.org/2000/svg" p-id="27868" width="32" height="32">
  <path d="M401.92 401.92c-4.608 5.12-8.704 10.24-12.288 15.872l216.064 216.064c5.632-3.072 10.752-7.168 15.872-12.288 3.584-3.584 6.656-7.68 9.728-11.776L413.696 392.192c-4.096 2.56-8.192 6.144-11.776 9.728zM410.624 613.376c47.104 16.896 92.16 32.256 131.072 34.304L376.32 482.304c2.048 38.912 17.408 83.968 34.304 131.072zM475.648 376.32l172.544 172.544c-1.024-40.448-16.896-88.064-34.816-137.728-49.664-17.92-97.28-33.792-137.728-34.816zM303.104 634.368l86.528 86.528c-6.144-20.992-13.312-43.008-21.504-65.024-22.528-7.68-44.032-15.36-65.024-21.504z" fill="#A2E799" p-id="27869"></path>
  <path d="M512 0C229.376 0 0 229.376 0 512s229.376 512 512 512 512-229.376 512-512S794.624 0 512 0z m167.424 434.176c26.112 81.408 41.472 165.888-18.944 226.304s-144.896 45.056-226.304 18.944c26.624 81.92 41.984 166.4-18.432 226.816-10.752 10.752-28.16 10.752-38.912 0-10.752-10.752-10.752-28.16 0-38.912 15.872-15.872 23.552-34.816 25.6-56.32l-188.928-188.928c-21.504 2.56-40.96 10.24-56.32 25.6-10.752 10.752-28.16 10.752-38.912 0-10.752-10.752-10.752-28.16 0-38.912 60.416-60.416 144.896-45.568 226.304-18.944C317.952 508.416 303.104 423.936 363.52 363.52s144.896-45.056 226.304-18.944c-26.624-81.408-41.472-165.888 18.944-226.304 10.752-10.752 28.16-10.752 38.912 0 10.752 10.752 10.752 28.16 0 38.912-16.384 15.872-23.552 36.352-25.6 58.88l185.856 185.856c22.528-1.536 42.496-9.216 58.88-25.6 10.752-10.752 28.16-10.752 38.912 0 10.752 10.752 10.752 28.16 0 38.912-60.416 60.416-144.896 45.568-226.304 18.944z" fill="#A2E799" p-id="27870"></path>
  <path d="M655.872 368.128c20.992 7.168 40.96 14.336 60.928 19.968l-81.408-80.384c6.144 19.456 13.312 39.936 20.48 60.416z" fill="#A2E799" p-id="27871"></path>
</svg>