<svg width="180" height="45"
  xmlns="http://www.w3.org/2000/svg">
  <g>
    <g stroke="null" id="svg_1" text-anchor="none" font-size="none" font-weight="none" font-family="none" stroke-dashoffset="0" stroke-miterlimit="10" fill-rule="none" fill="#42b983">
      <g stroke="null" id="svg_2">
        <g stroke="null" id="svg_3" fill-rule="nonzero">
          <path stroke="null" id="path-id-53709" d="m78.24539,3.78483l-12.76352,0c-1.76194,0 -3.19074,1.39615 -3.19074,3.11902c0,1.72287 1.4288,3.11902 3.19074,3.11902l0,28.07222c0,1.72287 1.4288,3.11902 3.19074,3.11902c1.76249,0 3.19129,-1.39615 3.19129,-3.11902l0,-9.35705l6.38149,0c5.27816,0 9.57278,-4.19808 9.57278,-9.35758l0,-6.23857c0,-5.16057 -4.29462,-9.35705 -9.57278,-9.35705l0,0zm3.19075,15.59562c0,1.71966 -1.43099,3.11902 -3.19074,3.11902l-6.38149,0l0,-12.4766l6.38149,0c1.75975,0 3.19074,1.39936 3.19074,3.11902l0,6.23857z" />
          <path stroke="null" id="path-id-73610" d="m109.17095,34.97607l-12.76352,0l0,-28.07222c0,-1.72287 -1.42826,-3.11902 -3.19074,-3.11902c-1.76249,0 -3.19074,1.39615 -3.19074,3.11902l0,30.56829c0,2.06402 1.71763,3.74303 3.82911,3.74303l15.31699,0c1.76249,0 3.19074,-1.39615 3.19074,-3.11902c0,-1.72287 -1.42935,-3.12009 -3.19184,-3.12009l0,0z" />
          <path stroke="null" id="path-id-35998" d="m139.92528,37.19836l-9.57278,-31.19124c-0.00164,-0.00481 -0.00438,-0.00856 -0.00547,-0.0123c-0.05416,-0.17271 -0.12745,-0.33848 -0.21115,-0.49889c-0.05306,-0.1016 -0.11706,-0.1941 -0.17942,-0.28768c-0.064,-0.09571 -0.12144,-0.19517 -0.19583,-0.2834c-0.06838,-0.08128 -0.14988,-0.14919 -0.22592,-0.22298c-0.07111,-0.06951 -0.13566,-0.14384 -0.21388,-0.20694c-0.09956,-0.08128 -0.21115,-0.14437 -0.32055,-0.21228c-0.08369,-0.05294 -0.16574,-0.10641 -0.25546,-0.15186c-0.16684,-0.08288 -0.3397,-0.1556 -0.51912,-0.20961c-0.00492,-0.00053 -0.00875,-0.00374 -0.01313,-0.00535c-0.06127,-0.01818 -0.12198,-0.02085 -0.1827,-0.03476c-0.13894,-0.03208 -0.27679,-0.0663 -0.42065,-0.08021c-0.11433,-0.01123 -0.22756,-0.00374 -0.34134,-0.00321c-0.09354,0.00107 -0.18598,-0.00642 -0.28062,0.00321c-0.16301,0.01497 -0.32219,0.0508 -0.47919,0.09037c-0.04376,0.01016 -0.08698,0.0123 -0.12964,0.0246c-0.00383,0.00107 -0.00656,0.00267 -0.0093,0.00374c-0.20349,0.06042 -0.40041,0.13849 -0.5864,0.23634c-0.0186,0.00962 -0.03391,0.0246 -0.05251,0.03422c-0.16082,0.0893 -0.31727,0.18876 -0.46168,0.30372c-0.06838,0.05454 -0.12363,0.12138 -0.18708,0.18074c-0.08588,0.08128 -0.17559,0.15774 -0.25218,0.24811c-0.06947,0.08288 -0.12253,0.17646 -0.18216,0.26522c-0.06728,0.09999 -0.13566,0.19891 -0.1931,0.308c-0.0826,0.16042 -0.1559,0.32457 -0.21005,0.49729c-0.00109,0.00428 -0.00383,0.00802 -0.00602,0.01284l-9.57114,31.19231c-0.50654,1.65014 0.45129,3.38905 2.13938,3.8842c0.30578,0.0893 0.6143,0.13261 0.91789,0.13261c1.37301,0 2.64045,-0.8732 3.05509,-2.22443l2.1897,-7.13369l8.65325,0l2.1897,7.13369c0.41464,1.35124 1.68208,2.22443 3.05509,2.22443c0.30359,0 0.61211,-0.04331 0.91789,-0.13261c1.68919,-0.49515 2.64592,-2.23406 2.14048,-3.8842l0.00001,0zm-15.04184,-11.57988l2.41234,-7.85984l2.41289,7.85984l-4.82523,0z" />
          <path stroke="null" id="path-id-90438" d="m160.80926,3.78483c-1.76249,0 -3.19074,1.39615 -3.19074,3.11902l0,16.03516l-9.97429,-17.55055c-0.02079,-0.03743 -0.05087,-0.06684 -0.0733,-0.10374c-0.05962,-0.09518 -0.12527,-0.18448 -0.19474,-0.27324c-0.06072,-0.0786 -0.12253,-0.15453 -0.18982,-0.22565c-0.07057,-0.07325 -0.14496,-0.1401 -0.22209,-0.20747c-0.07822,-0.06737 -0.15645,-0.13475 -0.24014,-0.1941c-0.08205,-0.05828 -0.16903,-0.10908 -0.25655,-0.15934c-0.08752,-0.0508 -0.17559,-0.09999 -0.26694,-0.14223c-0.09463,-0.04331 -0.19146,-0.07753 -0.29047,-0.11122c-0.09737,-0.03315 -0.1931,-0.06524 -0.2932,-0.08876c-0.09682,-0.02353 -0.19474,-0.0385 -0.29429,-0.05294c-0.11214,-0.01604 -0.22373,-0.02834 -0.33751,-0.03262c-0.04376,-0.00214 -0.08479,-0.0123 -0.12964,-0.0123c-0.05361,0 -0.10393,0.01284 -0.15699,0.01497c-0.11378,0.00588 -0.22646,0.01604 -0.34134,0.03369c-0.10229,0.01604 -0.20185,0.0369 -0.30031,0.06149c-0.09791,0.0246 -0.19474,0.05401 -0.29101,0.08876c-0.10886,0.0385 -0.21334,0.08288 -0.31672,0.13261c-0.04704,0.02299 -0.09737,0.03529 -0.14332,0.06042c-0.03884,0.02085 -0.06838,0.05027 -0.10612,0.07165c-0.09737,0.05882 -0.18927,0.12191 -0.27898,0.18982c-0.07986,0.06042 -0.15809,0.12031 -0.23139,0.18662c-0.07549,0.06791 -0.14277,0.14117 -0.21115,0.21603c-0.07057,0.077 -0.13785,0.15346 -0.19966,0.23634c-0.05908,0.08021 -0.11105,0.16416 -0.16246,0.24918c-0.05197,0.08662 -0.10284,0.17271 -0.1466,0.26415c-0.04322,0.09144 -0.07767,0.18555 -0.11268,0.28073c-0.03446,0.09518 -0.06728,0.19036 -0.09135,0.28928c-0.02352,0.09358 -0.03993,0.18982 -0.05415,0.28608c-0.0175,0.11015 -0.03009,0.21977 -0.03501,0.33152c-0.00164,0.04278 -0.01258,0.08235 -0.01258,0.12566l0,31.19124c0,1.72287 1.4288,3.11902 3.19129,3.11902c1.76194,0 3.19074,-1.39615 3.19074,-3.11902l0,-19.15524l9.57278,16.84312l0,2.31106c0,1.72287 1.42826,3.11955 3.19074,3.11955c1.76194,0 3.19074,-1.39669 3.19074,-3.11955l0,-31.19017c0,-1.72287 -1.4288,-3.11902 -3.19074,-3.11902l0,-0.00001z" />
        </g>
        <g stroke="null" id="svg_4" fill-rule="evenodd">
          <path stroke="null" id="path-id-10370" d="m29.48347,20.2526l7.84387,-8.23389l-0.01531,-0.0161l-7.82856,-8.21778l0,16.46776zm-2.133,-10.81686l0.40845,11.24468l-11.91173,-11.648l11.48081,0.40255l0.02247,0.00077zm15.15979,11.30952l-11.50328,0.39927l11.91587,-11.64396l-0.41181,11.22272l-0.00079,0.02196zm-15.66378,1.42443l-8.42324,-7.66754l-0.01647,0.01496l-8.40676,7.65257l16.84647,0zm3.74443,0.25953c0,0.35721 -0.12919,0.66211 -0.38756,0.9147c-0.2584,0.25256 -0.57031,0.37885 -0.93574,0.37885c-0.36542,0 -0.67734,-0.12628 -0.93574,-0.37885c-0.25837,-0.25259 -0.38756,-0.55749 -0.38756,-0.9147c0,-0.35721 0.12919,-0.66211 0.38756,-0.9147c0.2584,-0.25256 0.57031,-0.37885 0.93574,-0.37885c0.36542,0 0.67734,0.12628 0.93574,0.37885c0.25837,0.25259 0.38756,0.55749 0.38756,0.9147zm0.85373,0.40109l8.42324,7.66754l0.01647,-0.01496l8.40678,-7.65257l-16.84649,0zm-15.66378,1.42443l11.50328,-0.39927l-11.91587,11.64396l0.41181,-11.22272l0.00079,-0.02196zm15.15979,11.30952l-0.40845,-11.24468l11.91173,11.648l-11.48081,-0.40255l-0.02247,-0.00077zm-2.133,-10.81686l-7.84387,8.23389l0.01531,0.0161l7.82856,8.21779l0,-16.46778z" />
        </g>
        <path stroke="null" id="path-id-40208" fill-rule="nonzero" d="m53.89112,41.21517l0,-37.43034l0.92463,0l0,37.43034l-0.92463,0z" />
      </g>
    </g>
  </g>
</svg>